<?xml version="1.0" encoding="iso-8859-1"?>
<!-- Generator: Adobe Illustrator 16.0.4, SVG Export Plug-In . SVG Version: 6.00 Build 0)  -->
<!DOCTYPE svg PUBLIC "-//W3C//DTD SVG 1.1//EN" "http://www.w3.org/Graphics/SVG/1.1/DTD/svg11.dtd">
<svg version="1.1" id="Layer_1" xmlns="http://www.w3.org/2000/svg" xmlns:xlink="http://www.w3.org/1999/xlink" x="0px" y="0px"
	 width="72px" height="72px" viewBox="0 0 72 72" style="enable-background:new 0 0 72 72;" xml:space="preserve">
<g>
	<path d="M45.598,40.825c-3.656-3.526-7.311-7.056-10.963-10.584c-2.462-2.378-4.924-4.759-7.388-7.135
		c-0.601-0.579-1.205-0.569-1.789,0.012c-0.07,0.069-0.138,0.139-0.205,0.208c-5.863,6.062-11.727,12.125-17.589,18.188
		c-0.688,0.711-0.678,1.276,0.033,1.965c6.098,5.886,12.196,11.771,18.294,17.658c0.736,0.711,1.282,0.702,1.995-0.034
		c3.561-3.681,7.12-7.362,10.683-11.042c2.341-2.422,4.689-4.836,7.021-7.267c0.236-0.246,0.376-0.585,0.561-0.881
		C46.16,41.408,45.896,41.112,45.598,40.825z M14.805,45.174c-1.478,0.011-2.778-1.261-2.776-2.714
		c0.002-1.334,1.31-2.581,2.715-2.59c1.476-0.009,2.672,1.16,2.685,2.621C17.441,43.95,16.256,45.162,14.805,45.174z M20.695,39.093
		c-1.468,0.01-2.661-1.177-2.661-2.646c0-1.468,1.187-2.648,2.663-2.65c1.465-0.002,2.658,1.188,2.661,2.653
		C23.36,37.919,22.188,39.084,20.695,39.093z M26.516,27.559c1.48,0.049,2.736,1.067,2.766,2.706
		c0.027,1.47-1.168,2.646-2.641,2.651c-1.504,0.003-2.686-1.172-2.677-2.662C23.973,28.865,25.206,27.516,26.516,27.559z
		 M26.888,56.89c-1.345,0.015-2.572-1.246-2.588-2.656c-0.018-1.481,1.189-2.696,2.668-2.69c1.472,0.007,2.651,1.188,2.657,2.656
		C29.631,55.663,28.4,56.873,26.888,56.89z M32.73,50.688c-1.474-0.007-2.652-1.193-2.644-2.667c0.009-1.482,1.18-2.641,2.667-2.635
		c1.481,0.006,2.654,1.187,2.644,2.658C35.386,49.521,34.202,50.693,32.73,50.688z M38.665,44.566
		c-1.446,0.026-2.667-1.179-2.675-2.641c-0.01-1.46,1.17-2.66,2.638-2.683c1.417-0.022,2.77,1.289,2.775,2.69
		C41.408,43.271,40.087,44.541,38.665,44.566z"/>
	<path d="M62.195,22.176c-1.303-0.219-2.608-0.425-3.912-0.632c-7.132-1.134-14.262-2.266-21.392-3.399
		c-0.925-0.147-1.411,0.183-1.56,1.102c-0.428,2.65-0.843,5.303-1.272,7.952c-0.045,0.279,0.033,0.462,0.234,0.656
		c4.131,3.975,8.255,7.958,12.381,11.936c1.306,1.259,1.343,2.77,0.087,4.072c-1.12,1.161-2.246,2.318-3.368,3.479
		c-0.092,0.094-0.179,0.194-0.296,0.321c0.108,0.037,0.157,0.062,0.208,0.07c4.835,0.769,9.669,1.537,14.504,2.302
		c0.748,0.118,1.26-0.281,1.378-1.038c0.149-0.96,0.307-1.921,0.46-2.881c0.597-3.721,1.196-7.44,1.789-11.162
		c0.599-3.763,1.19-7.527,1.791-11.291C63.362,22.817,63.035,22.317,62.195,22.176z M47.281,36.748
		c-1.466-0.006-2.646-1.192-2.641-2.658c0.005-1.467,1.187-2.636,2.658-2.634c1.491,0.002,2.686,1.2,2.666,2.673
		C49.948,35.591,48.756,36.753,47.281,36.748z"/>
</g>
</svg>
