<?xml version="1.0" encoding="iso-8859-1"?>
<!-- Generator: Adobe Illustrator 16.0.4, SVG Export Plug-In . SVG Version: 6.00 Build 0)  -->
<!DOCTYPE svg PUBLIC "-//W3C//DTD SVG 1.1//EN" "http://www.w3.org/Graphics/SVG/1.1/DTD/svg11.dtd">
<svg version="1.1" id="Layer_1" xmlns="http://www.w3.org/2000/svg" xmlns:xlink="http://www.w3.org/1999/xlink" x="0px" y="0px"
	 width="72px" height="72px" viewBox="0 0 72 72" style="enable-background:new 0 0 72 72;" xml:space="preserve">
<g>
	<path style="fill-rule:evenodd;clip-rule:evenodd;" d="M12.465,34.425c0.305-1.466,0.097-2.764-0.683-4.11
		c1.216-0.207,2.337-0.486,3.474-0.572c2.26-0.169,4.541-0.437,6.79-0.296c4.903,0.305,8.631,2.688,10.887,7.081
		c1.137,2.218,1.984,4.584,2.928,6.802c5.198-9.517,13.748-12.861,24.263-12.493c-0.482,2.569-0.482,2.569-0.021,4.422
		c-0.104,0.046-0.211,0.118-0.326,0.141c-5.083,0.991-7.952,4.278-9.354,9.056c-0.909,3.101-1.036,6.247-0.404,9.421
		c0.056,0.277,0.08,0.562,0.112,0.844c0.016,0.126,0.016,0.255,0.026,0.442c-9.267,0-18.514,0-27.752,0
		c0.176-1.739,0.402-3.426,0.508-5.121c0.192-3.06,0.009-6.09-0.966-9.029c-0.154-0.464-0.333-0.924-0.538-1.367
		c-1.546-3.355-4.057-5.267-7.864-5.221C13.216,34.429,12.887,34.425,12.465,34.425z"/>
	<path style="fill-rule:evenodd;clip-rule:evenodd;" d="M45.993,19.328c-0.673,1.052-1.264,1.992-1.877,2.919
		c-0.085,0.13-0.259,0.258-0.409,0.282c-3.106,0.5-4.684,4.504-3.866,7.308c0.432,1.478,1.234,2.712,2.324,3.778
		c0.071,0.07,0.125,0.158,0.216,0.274c-2.764,1.625-4.991,3.75-6.473,6.7c-0.293-1.022-0.514-1.946-0.825-2.838
		c-0.728-2.088-1.912-3.873-3.613-5.312c-0.209-0.177-0.389-0.572-0.351-0.832c0.48-3.29,1.496-6.395,3.585-9.029
		c2.183-2.753,5.009-4.278,8.613-3.933C44.262,18.735,45.179,19.113,45.993,19.328z"/>
	<path style="fill-rule:evenodd;clip-rule:evenodd;" d="M50.194,56.793c0,0.78,0,1.516,0,2.309c-9.367,0-18.694,0-28.07,0
		c0-0.766,0-1.502,0-2.309C31.453,56.793,40.779,56.793,50.194,56.793z"/>
	<path style="fill-rule:evenodd;clip-rule:evenodd;" d="M45.1,23.875c-0.018-2.178,1.656-3.886,3.833-3.914
		c2.167-0.027,3.908,1.658,3.942,3.815c0.035,2.184-1.699,3.955-3.882,3.962C46.831,27.745,45.116,26.043,45.1,23.875z"/>
	<path style="fill-rule:evenodd;clip-rule:evenodd;" d="M60.927,33.125c0-2.15,1.719-3.879,3.875-3.897
		c2.176-0.018,3.922,1.74,3.908,3.935c-0.013,2.147-1.763,3.875-3.908,3.86C62.648,37.008,60.927,35.275,60.927,33.125z"/>
	<path style="fill-rule:evenodd;clip-rule:evenodd;" d="M3.613,33.162C3.6,30.994,5.29,29.256,7.442,29.227
		c2.178-0.029,3.953,1.72,3.953,3.898c-0.001,2.15-1.723,3.882-3.877,3.897C5.368,37.037,3.625,35.315,3.613,33.162z"/>
</g>
</svg>
