<?xml version="1.0" encoding="utf-8"?>
<!-- Generator: Adobe Illustrator 16.0.4, SVG Export Plug-In . SVG Version: 6.00 Build 0)  -->
<!DOCTYPE svg PUBLIC "-//W3C//DTD SVG 1.1//EN" "http://www.w3.org/Graphics/SVG/1.1/DTD/svg11.dtd">
<svg version="1.1" id="rest" xmlns="http://www.w3.org/2000/svg" xmlns:xlink="http://www.w3.org/1999/xlink" x="0px" y="0px"
	 width="72px" height="72px" viewBox="0 0 72 72" enable-background="new 0 0 72 72" xml:space="preserve">
<circle fill="#EDB46C" cx="36.043" cy="35.957" r="35.957"/>
<path fill="#CC9A62" d="M55.844,13.957h-39.6c-1.216,0-2.2,0.985-2.2,2.2v39.599c0,1.215,0.984,2.199,2.2,2.199h39.6
	c1.215,0,2.199-0.984,2.199-2.199V16.157C58.043,14.942,57.059,13.957,55.844,13.957z M23.421,53.9
	c-2.454,0-4.442-1.988-4.442-4.441s1.989-4.441,4.442-4.441c2.453,0,4.442,1.988,4.442,4.441S25.874,53.9,23.421,53.9z
	 M23.421,27.522c-2.454,0-4.442-1.989-4.442-4.442c0-2.454,1.989-4.442,4.442-4.442c2.453,0,4.442,1.989,4.442,4.442
	C27.863,25.533,25.874,27.522,23.421,27.522z M36.003,40.711c-2.453,0-4.441-1.988-4.441-4.44c0-2.454,1.989-4.442,4.441-4.442
	c2.454,0,4.442,1.989,4.442,4.442C40.445,38.723,38.457,40.711,36.003,40.711z M48.83,53.9c-2.455,0-4.443-1.988-4.443-4.441
	s1.988-4.441,4.443-4.441c2.453,0,4.441,1.988,4.441,4.441S51.283,53.9,48.83,53.9z M48.83,27.522c-2.455,0-4.443-1.989-4.443-4.442
	c0-2.454,1.988-4.442,4.443-4.442c2.453,0,4.441,1.989,4.441,4.442C53.271,25.533,51.283,27.522,48.83,27.522z"/>
</svg>
