<?xml version="1.0" encoding="utf-8"?>
<!-- Generator: Adobe Illustrator 16.0.4, SVG Export Plug-In . SVG Version: 6.00 Build 0)  -->
<!DOCTYPE svg PUBLIC "-//W3C//DTD SVG 1.1//EN" "http://www.w3.org/Graphics/SVG/1.1/DTD/svg11.dtd">
<svg version="1.1" id="rest" xmlns="http://www.w3.org/2000/svg" xmlns:xlink="http://www.w3.org/1999/xlink" x="0px" y="0px"
	 width="72px" height="72px" viewBox="0 0 72 72" enable-background="new 0 0 72 72" xml:space="preserve">
<circle fill="#00DEFE" cx="35.996" cy="36.211" r="35.957"/>
<g>
	<path fill-rule="evenodd" clip-rule="evenodd" fill="#09C1C6" d="M35.857,40.022c-4.851-0.064-8.622-3.949-8.566-8.826
		c0.054-4.799,4.077-8.717,8.837-8.609c4.839,0.109,8.642,4.044,8.574,8.872C44.634,36.289,40.712,40.087,35.857,40.022z"/>
	<path fill-rule="evenodd" clip-rule="evenodd" fill="#09C1C6" d="M48.438,21.965c1.713-0.035,3.137,1.312,3.194,3.023
		c0.06,1.78-1.349,3.223-3.145,3.222c-1.721,0-3.095-1.37-3.103-3.09C45.378,23.388,46.722,22,48.438,21.965z"/>
	<path fill-rule="evenodd" clip-rule="evenodd" fill="#09C1C6" d="M23.543,28.203c-1.751,0.023-3.129-1.279-3.184-3.008
		c-0.056-1.77,1.385-3.253,3.146-3.237c1.703,0.015,3.086,1.41,3.095,3.122C26.61,26.821,25.279,28.181,23.543,28.203z"/>
	<path fill-rule="evenodd" clip-rule="evenodd" fill="#09C1C6" d="M46.485,20.844c0.637-1.857,1.265-3.687,2.017-5.879
		c0.754,2.209,1.378,4.042,2.005,5.879C49.168,20.844,47.908,20.844,46.485,20.844z"/>
	<path fill-rule="evenodd" clip-rule="evenodd" fill="#09C1C6" d="M21.478,20.839c0.626-1.839,1.234-3.624,1.988-5.836
		c0.77,2.2,1.41,4.03,2.042,5.836C24.168,20.839,22.906,20.839,21.478,20.839z"/>
	<path fill-rule="evenodd" clip-rule="evenodd" fill="#09C1C6" d="M46.468,29.336c1.378,0,2.588,0,4.034,0
		c-0.612,1.808-1.237,3.648-1.992,5.876C47.751,33.028,47.12,31.215,46.468,29.336z"/>
	<path fill-rule="evenodd" clip-rule="evenodd" fill="#09C1C6" d="M21.451,29.327c1.417,0,2.625,0,4.029,0
		c-0.6,1.784-1.215,3.614-1.979,5.887C22.724,32.982,22.088,31.159,21.451,29.327z"/>
	<polygon fill-rule="evenodd" clip-rule="evenodd" fill="#00DEFE" points="21.061,40.023 27.29,41.961 32.357,47.169 40.274,47.169 
		44.703,43.596 46.485,40.023 51.635,40.023 53.755,43.596 51.571,47.169 46.468,54.779 40.274,57.453 30.602,57.247 23.492,53.721 
		20.358,48.738 17.625,43.589 	"/>
	<path fill-rule="evenodd" clip-rule="evenodd" fill="#09C1C6" d="M36.176,59.987c-8.383-0.297-14.824-3.729-19.354-10.568
		c-2.621-3.958-1.786-8.6,1.874-11.048c3.637-2.434,8.231-1.332,10.89,2.609c3.339,4.949,9.48,4.932,12.843-0.036
		c2.634-3.892,7.046-4.974,10.749-2.637c3.644,2.301,4.638,6.934,2.144,10.853C50.831,56.213,44.272,59.664,36.176,59.987z
		 M35.898,54.308c6.179-0.231,11.041-2.799,14.487-7.952c0.758-1.133,1.05-2.313-0.251-3.188c-1.312-0.881-2.228-0.14-3.019,0.997
		c-5.764,8.29-16.542,8.281-22.253-0.017c-0.79-1.147-1.7-1.868-3.011-0.963c-1.291,0.894-0.995,2.055-0.233,3.193
		C25.028,51.473,29.836,54.025,35.898,54.308z"/>
</g>
</svg>
