<?xml version="1.0" encoding="utf-8"?>
<!-- Generator: Adobe Illustrator 16.0.4, SVG Export Plug-In . SVG Version: 6.00 Build 0)  -->
<!DOCTYPE svg PUBLIC "-//W3C//DTD SVG 1.1//EN" "http://www.w3.org/Graphics/SVG/1.1/DTD/svg11.dtd">
<svg version="1.1" id="rest" xmlns="http://www.w3.org/2000/svg" xmlns:xlink="http://www.w3.org/1999/xlink" x="0px" y="0px"
	 width="72px" height="72px" viewBox="0 0 72 72" enable-background="new 0 0 72 72" xml:space="preserve">
<circle fill="#FBF2C0" cx="36.044" cy="35.956" r="35.957"/>
<g>
	<path fill="#D6C88E" d="M46.251,40.884c-3.886-3.748-7.771-7.5-11.652-11.249c-2.616-2.528-5.233-5.058-7.852-7.583
		c-0.639-0.616-1.281-0.605-1.902,0.013c-0.074,0.073-0.147,0.147-0.218,0.221c-6.231,6.443-12.464,12.887-18.695,19.331
		c-0.731,0.755-0.721,1.356,0.035,2.088c6.481,6.257,12.963,12.512,19.444,18.769c0.782,0.756,1.362,0.746,2.12-0.035
		c3.785-3.913,7.567-7.825,11.354-11.737c2.488-2.574,4.983-5.14,7.462-7.724c0.251-0.262,0.4-0.622,0.597-0.937
		C46.849,41.504,46.568,41.188,46.251,40.884z M13.523,45.506c-1.571,0.013-2.953-1.34-2.951-2.884
		c0.002-1.418,1.393-2.743,2.886-2.753c1.569-0.01,2.84,1.233,2.854,2.786C16.324,44.206,15.065,45.494,13.523,45.506z
		 M19.783,39.043c-1.56,0.012-2.828-1.251-2.828-2.812c0-1.561,1.262-2.815,2.83-2.817c1.558-0.002,2.825,1.263,2.829,2.82
		C22.615,37.795,21.37,39.033,19.783,39.043z M25.97,26.784c1.573,0.052,2.908,1.134,2.94,2.876
		c0.029,1.562-1.242,2.812-2.807,2.818c-1.598,0.003-2.854-1.246-2.845-2.83C23.267,28.172,24.578,26.738,25.97,26.784z
		 M26.365,57.959c-1.43,0.016-2.734-1.324-2.751-2.822c-0.019-1.575,1.264-2.866,2.836-2.86c1.564,0.008,2.818,1.264,2.824,2.823
		C29.28,56.654,27.972,57.94,26.365,57.959z M32.574,51.366c-1.566-0.006-2.818-1.268-2.81-2.833
		c0.01-1.576,1.254-2.808,2.834-2.802c1.574,0.007,2.821,1.262,2.811,2.825C35.397,50.127,34.139,51.373,32.574,51.366z
		 M38.883,44.86c-1.537,0.027-2.835-1.254-2.843-2.808c-0.011-1.552,1.244-2.826,2.803-2.852c1.507-0.022,2.945,1.37,2.949,2.859
		C41.798,43.484,40.394,44.834,38.883,44.86z"/>
	<path fill="#D6C88E" d="M63.892,21.062c-1.385-0.232-2.772-0.452-4.158-0.671c-7.581-1.205-15.158-2.409-22.737-3.613
		c-0.982-0.156-1.499,0.195-1.657,1.171c-0.455,2.816-0.896,5.636-1.352,8.452c-0.047,0.296,0.035,0.491,0.249,0.697
		c4.391,4.225,8.774,8.458,13.159,12.687c1.389,1.338,1.429,2.943,0.094,4.328c-1.191,1.233-2.388,2.464-3.581,3.697
		c-0.098,0.1-0.19,0.206-0.313,0.342c0.114,0.039,0.166,0.064,0.22,0.073c5.141,0.818,10.278,1.634,15.416,2.447
		c0.795,0.125,1.339-0.299,1.466-1.104c0.157-1.02,0.325-2.041,0.487-3.062c0.636-3.956,1.271-7.908,1.901-11.864
		c0.638-4,1.266-8,1.904-12.001C65.131,21.744,64.784,21.212,63.892,21.062z M48.04,36.551c-1.559-0.006-2.812-1.267-2.807-2.825
		c0.005-1.559,1.262-2.802,2.824-2.799c1.585,0.002,2.855,1.275,2.834,2.841C50.875,35.321,49.607,36.556,48.04,36.551z"/>
</g>
</svg>
